<?xml version="1.0" encoding="UTF-8"?>
<svg id="Layer_1" data-name="Layer 1" xmlns="http://www.w3.org/2000/svg" viewBox="0 0 208.23 72.13">
  <defs>
    <style>
      .cls-1 {
        fill: #fff;
      }

      .cls-2 {
        fill: #5ce1e6;
      }

      .cls-3 {
        fill: #f9f9f9;
        font-family: Arial-Black, Arial;
        font-size: 38.55px;
      }
    </style>
  </defs>
  <path class="cls-2" d="M130.34,36.47c1.6,.32,2.88,1.09,3.83,2.29,.98,1.17,1.46,2.56,1.46,4.16,0,2.23-.75,3.99-2.25,5.29-1.48,1.28-3.63,1.91-6.45,1.91h-11.37V23.63h11.14c2.68,0,4.73,.59,6.15,1.77,1.45,1.17,2.17,2.83,2.17,4.96,0,1.66-.43,3.01-1.31,4.05-.85,1.05-1.98,1.74-3.38,2.06h0Zm-9.5-1.73h4.76c1.32,0,2.33-.29,3.01-.86,.7-.6,1.05-1.45,1.05-2.55s-.34-1.95-1.02-2.55c-.68-.6-1.71-.9-3.12-.9h-4.69v6.87h0Zm5.03,11.05c1.4,0,2.48-.3,3.23-.9,.75-.63,1.13-1.53,1.13-2.7s-.39-2.08-1.17-2.7c-.75-.65-1.82-.98-3.23-.98h-4.99v7.28s5.03,0,5.03,0Zm21.6-16.74c1.75,0,3.26,.42,4.5,1.24,1.25,.82,2.14,1.94,2.66,3.34v-4.32h5.25v20.79h-5.25v-4.36c-.53,1.4-1.41,2.52-2.66,3.38-1.25,.82-2.76,1.24-4.5,1.24s-3.33-.43-4.73-1.28-2.51-2.08-3.3-3.68c-.78-1.63-1.17-3.52-1.17-5.71s.39-4.07,1.17-5.67c.8-1.63,1.91-2.87,3.3-3.72,1.4-.85,2.98-1.28,4.73-1.28v.02Zm1.66,4.61c-1.66,0-2.98,.54-3.98,1.61s-1.5,2.55-1.5,4.43,.5,3.35,1.5,4.43c1,1.05,2.33,1.57,3.98,1.57s2.91-.54,3.94-1.61c1.05-1.1,1.57-2.56,1.57-4.39s-.53-3.31-1.57-4.39c-1.03-1.1-2.34-1.66-3.94-1.66h0Zm27.95-4.63c2.4,0,4.32,.79,5.74,2.37,1.42,1.57,2.14,3.79,2.14,6.64v12.09h-5.25v-11.49c0-1.66-.43-2.92-1.28-3.83-.85-.92-2.02-1.39-3.49-1.39s-2.7,.49-3.61,1.46c-.9,.98-1.35,2.38-1.35,4.2v11.03h-5.29V29.34h5.29v4.16c.55-1.4,1.45-2.49,2.7-3.26,1.28-.8,2.74-1.2,4.39-1.2Zm24.69,21.08l-6.86-9.08v9.08h-5.29V22.35h5.29v15.61l6.82-8.63h6.27l-8.74,10.36,8.97,10.43h-6.46Z"/>
  <path class="cls-1" d="M36.07,0c-7.13,0-14.11,2.12-20.04,6.08C10.1,10.04,5.48,15.67,2.75,22.27,.02,28.86-.7,36.11,.69,43.1c1.39,7,4.83,13.42,9.87,18.47,5.04,5.04,11.47,8.48,18.47,9.87s14.25,.68,20.84-2.05,12.22-7.35,16.19-13.28c3.96-5.93,6.08-12.9,6.08-20.04h-18.03c0,3.57-1.06,7.05-3.04,10.02s-4.8,5.28-8.09,6.64c-3.3,1.36-6.92,1.72-10.42,1.03-3.5-.7-6.71-2.41-9.23-4.94-2.52-2.52-4.24-5.74-4.94-9.23-.7-3.5-.34-7.12,1.03-10.42,1.36-3.3,3.68-6.11,6.64-8.09,2.97-1.98,6.45-3.04,10.02-3.04V0h0Z"/>
  <path class="cls-2" d="M36.07,0c-4.74,0-9.43,.93-13.8,2.75-4.38,1.81-8.35,4.47-11.7,7.82-3.35,3.35-6.01,7.33-7.82,11.7C.93,26.64,0,31.33,0,36.07H18.03c0-2.37,.47-4.71,1.37-6.9,.91-2.19,2.23-4.18,3.91-5.85,1.67-1.67,3.66-3,5.85-3.91s4.53-1.37,6.9-1.37V0h0Z"/>
  <circle class="cls-2" cx="36.07" cy="36.07" r="11.27"/>
  <path class="cls-1" d="M47.34,36.07c0-1.48-.29-2.95-.86-4.31-.57-1.37-1.4-2.61-2.44-3.66-1.05-1.05-2.29-1.88-3.66-2.44s-2.83-.86-4.31-.86-2.95,.29-4.31,.86c-1.37,.57-2.61,1.4-3.66,2.44-1.05,1.05-1.88,2.29-2.44,3.66-.57,1.37-.86,2.83-.86,4.31h22.54Z"/>
  <text class="cls-3" transform="translate(82.37 51.11) scale(1.06 1)"><tspan x="0" y="0">D</tspan></text>
</svg>